<svg width="286" height="63" viewBox="0 0 286 63" fill="none" xmlns="http://www.w3.org/2000/svg">
<path d="M5.728 26.816V35.904C5.728 38.336 6.688 40.4267 8.608 42.176C10.528 43.9253 12.768 44.8 15.328 44.8C18.3573 44.8 20.704 43.6693 22.368 41.408C24.0747 39.104 24.928 35.7547 24.928 31.36C24.928 22.4 21.728 17.92 15.328 17.92C12.7253 17.92 10.464 18.816 8.544 20.608C6.66667 22.3573 5.728 24.4267 5.728 26.816ZM5.024 61.376C4.55467 61.8453 3.97867 62.08 3.296 62.08C2.61333 62.08 2.016 61.8453 1.504 61.376C1.03467 60.9067 0.8 60.3307 0.8 59.648V17.024C0.8 16.384 1.01333 15.8507 1.44 15.424C1.90933 14.9547 2.464 14.72 3.104 14.72C3.744 14.72 4.29867 14.9547 4.768 15.424C5.23733 15.8507 5.472 16.384 5.472 17.024L5.536 19.456C5.536 19.4987 5.55733 19.52 5.6 19.52L5.728 19.392C8.544 15.8507 12.1067 14.08 16.416 14.08C20.5547 14.08 23.8187 15.5947 26.208 18.624C28.64 21.6107 29.856 25.856 29.856 31.36C29.856 36.6933 28.5973 40.9173 26.08 44.032C23.6053 47.104 20.384 48.64 16.416 48.64C12.064 48.64 8.56533 46.9973 5.92 43.712C5.87733 43.6693 5.83467 43.648 5.792 43.648C5.74933 43.648 5.728 43.6693 5.728 43.712V59.648C5.728 60.3307 5.49333 60.9067 5.024 61.376ZM50.655 17.792C44.7243 17.792 41.4817 21.312 40.927 28.352C40.927 28.6933 41.119 28.864 41.503 28.864H58.719C59.0603 28.864 59.231 28.6933 59.231 28.352C58.975 21.312 56.1163 17.792 50.655 17.792ZM51.999 48.64C46.751 48.64 42.7617 47.2107 40.031 44.352C37.3003 41.4507 35.935 37.12 35.935 31.36C35.935 25.4293 37.2363 21.0773 39.839 18.304C42.4843 15.488 46.0897 14.08 50.655 14.08C59.0603 14.08 63.519 19.0507 64.031 28.992C64.0737 30.016 63.711 30.8907 62.943 31.616C62.2177 32.2987 61.343 32.64 60.319 32.64H41.375C41.0337 32.64 40.863 32.832 40.863 33.216C41.247 41.024 45.1083 44.928 52.447 44.928C54.879 44.928 57.375 44.48 59.935 43.584C60.4043 43.4133 60.8523 43.4773 61.279 43.776C61.7057 44.032 61.919 44.416 61.919 44.928C61.919 46.3787 61.2577 47.2747 59.935 47.616C57.2043 48.2987 54.559 48.64 51.999 48.64ZM76.0895 47.232C75.6202 47.744 75.0228 48 74.2975 48C73.5722 48 72.9535 47.744 72.4415 47.232C71.9722 46.72 71.7375 46.1227 71.7375 45.44V17.152C71.7375 16.4693 71.9722 15.8933 72.4415 15.424C72.9108 14.9547 73.4868 14.72 74.1695 14.72C74.8522 14.72 75.4282 14.9547 75.8975 15.424C76.3668 15.8933 76.6015 16.4693 76.6015 17.152V22.08C76.6015 22.1227 76.6228 22.144 76.6655 22.144C76.7508 22.144 76.7935 22.1013 76.7935 22.016C78.0735 19.8827 79.8655 18.176 82.1695 16.896C84.5162 15.5733 87.1402 14.848 90.0415 14.72C90.6388 14.6773 91.1508 14.8693 91.5775 15.296C92.0042 15.7227 92.2175 16.2347 92.2175 16.832C92.2175 17.3867 92.0042 17.8773 91.5775 18.304C91.1935 18.7307 90.7028 18.9653 90.1055 19.008C85.8815 19.1787 82.6175 20.416 80.3135 22.72C78.0095 24.9813 76.8575 28.16 76.8575 32.256V45.44C76.8575 46.1227 76.6015 46.72 76.0895 47.232ZM104.774 47.296C104.305 47.7653 103.729 48 103.046 48C102.363 48 101.766 47.7653 101.254 47.296C100.785 46.8267 100.55 46.2507 100.55 45.568V17.088C100.55 16.448 100.785 15.8933 101.254 15.424C101.723 14.9547 102.278 14.72 102.918 14.72C103.558 14.72 104.113 14.9547 104.582 15.424C105.051 15.8933 105.286 16.448 105.286 17.088L105.35 19.2C105.35 19.2427 105.371 19.264 105.414 19.264C105.499 19.264 105.542 19.2213 105.542 19.136C107.974 15.7653 110.875 14.08 114.246 14.08C116.294 14.08 117.937 14.528 119.174 15.424C120.454 16.32 121.499 17.8133 122.31 19.904C122.31 19.9893 122.331 20.032 122.374 20.032C122.459 20.032 122.502 19.9893 122.502 19.904C124.891 16.0213 128.006 14.08 131.846 14.08C135.259 14.08 137.713 15.0613 139.206 17.024C140.742 18.9867 141.51 22.272 141.51 26.88V45.568C141.51 46.2507 141.275 46.8267 140.806 47.296C140.379 47.7653 139.825 48 139.142 48C138.459 48 137.883 47.7653 137.414 47.296C136.945 46.8267 136.71 46.2507 136.71 45.568V28.16C136.71 24.192 136.241 21.504 135.302 20.096C134.406 18.6453 132.806 17.92 130.502 17.92C128.923 17.92 127.366 18.7733 125.83 20.48C124.294 22.144 123.526 23.872 123.526 25.664V45.568C123.526 46.2507 123.291 46.8267 122.822 47.296C122.353 47.7653 121.777 48 121.094 48C120.411 48 119.835 47.7653 119.366 47.296C118.897 46.8267 118.662 46.2507 118.662 45.568V28.16C118.662 24.192 118.193 21.504 117.254 20.096C116.358 18.6453 114.779 17.92 112.518 17.92C110.939 17.92 109.361 18.7733 107.782 20.48C106.246 22.144 105.478 23.872 105.478 25.664V45.568C105.478 46.2507 105.243 46.8267 104.774 47.296ZM166.928 30.4C162.704 30.4 159.504 31.0827 157.328 32.448C155.195 33.8133 154.128 35.7333 154.128 38.208C154.128 40.128 154.661 41.6853 155.728 42.88C156.837 44.032 158.288 44.608 160.08 44.608C163.152 44.608 165.691 43.584 167.696 41.536C169.744 39.488 170.768 36.7787 170.768 33.408V30.976C170.768 30.592 170.576 30.4 170.192 30.4H166.928ZM159.056 48.64C156.155 48.64 153.787 47.7227 151.952 45.888C150.117 44.0533 149.2 41.6213 149.2 38.592C149.2 35.0507 150.608 32.2133 153.424 30.08C156.24 27.9467 160.741 26.88 166.928 26.88H170.192C170.576 26.88 170.768 26.7093 170.768 26.368V25.152C170.768 22.5493 170.171 20.736 168.976 19.712C167.781 18.6453 165.669 18.112 162.64 18.112C159.696 18.112 156.517 18.6667 153.104 19.776C152.592 19.9467 152.123 19.8827 151.696 19.584C151.269 19.2853 151.056 18.8587 151.056 18.304C151.056 16.8107 151.76 15.8507 153.168 15.424C156.325 14.528 159.483 14.08 162.64 14.08C167.547 14.08 170.939 14.976 172.816 16.768C174.736 18.56 175.696 21.7813 175.696 26.432V45.696C175.696 46.336 175.461 46.8907 174.992 47.36C174.565 47.7867 174.032 48 173.392 48C172.752 48 172.197 47.7867 171.728 47.36C171.259 46.8907 171.024 46.336 171.024 45.696L170.96 42.368C170.96 42.3253 170.939 42.304 170.896 42.304C170.811 42.304 170.768 42.3467 170.768 42.432C168.251 46.5707 164.347 48.64 159.056 48.64Z" fill="black"/>
<path d="M191.9 47.232C191.43 47.744 190.833 48 190.108 48C189.382 48 188.764 47.744 188.252 47.232C187.782 46.72 187.548 46.1227 187.548 45.44V2.56C187.548 1.87733 187.782 1.28 188.252 0.767998C188.764 0.255997 189.382 -3.8147e-06 190.108 -3.8147e-06C190.833 -3.8147e-06 191.43 0.255997 191.9 0.767998C192.412 1.28 192.668 1.87733 192.668 2.56V45.44C192.668 46.1227 192.412 46.72 191.9 47.232ZM210.462 47.232C209.993 47.744 209.395 48 208.67 48C207.945 48 207.326 47.744 206.814 47.232C206.345 46.72 206.11 46.1227 206.11 45.44V17.28C206.11 16.5973 206.345 16 206.814 15.488C207.326 14.976 207.945 14.72 208.67 14.72C209.395 14.72 209.993 14.976 210.462 15.488C210.974 16 211.23 16.5973 211.23 17.28V45.44C211.23 46.1227 210.974 46.72 210.462 47.232ZM210.462 6.144C209.993 6.61333 209.395 6.848 208.67 6.848C207.945 6.848 207.326 6.61333 206.814 6.144C206.345 5.632 206.11 5.01333 206.11 4.288V2.56C206.11 1.87733 206.345 1.28 206.814 0.767998C207.326 0.255997 207.945 -3.8147e-06 208.67 -3.8147e-06C209.395 -3.8147e-06 209.993 0.255997 210.462 0.767998C210.974 1.28 211.23 1.87733 211.23 2.56V4.288C211.23 5.01333 210.974 5.632 210.462 6.144ZM227.523 47.296C227.053 47.7653 226.477 48 225.795 48C225.112 48 224.536 47.7653 224.067 47.296C223.597 46.8267 223.363 46.2507 223.363 45.568V17.024C223.363 16.384 223.576 15.8507 224.003 15.424C224.472 14.9547 225.027 14.72 225.667 14.72C226.307 14.72 226.861 14.9547 227.331 15.424C227.8 15.8507 228.035 16.384 228.035 17.024V19.648C228.035 19.6907 228.056 19.712 228.099 19.712C228.141 19.712 228.184 19.6907 228.227 19.648C231.299 15.936 234.947 14.08 239.171 14.08C243.053 14.08 245.869 15.168 247.619 17.344C249.368 19.52 250.243 23.1253 250.243 28.16V45.568C250.243 46.2507 250.008 46.8267 249.539 47.296C249.112 47.7653 248.557 48 247.875 48C247.192 48 246.616 47.7653 246.147 47.296C245.677 46.8267 245.443 46.2507 245.443 45.568V28.8C245.443 24.576 244.867 21.7173 243.715 20.224C242.563 18.688 240.621 17.92 237.891 17.92C235.672 17.92 233.517 18.9653 231.427 21.056C229.336 23.104 228.291 25.216 228.291 27.392V45.568C228.291 46.2507 228.035 46.8267 227.523 47.296ZM264.03 47.296C263.561 47.7653 262.985 48 262.302 48C261.619 48 261.043 47.7653 260.574 47.296C260.105 46.8267 259.87 46.2507 259.87 45.568V2.432C259.87 1.74933 260.105 1.17333 260.574 0.703999C261.043 0.234664 261.619 -3.8147e-06 262.302 -3.8147e-06C262.985 -3.8147e-06 263.561 0.234664 264.03 0.703999C264.499 1.17333 264.734 1.74933 264.734 2.432V29.504C264.734 29.5467 264.755 29.568 264.798 29.568L264.926 29.504L278.75 16.768C280.201 15.4027 281.95 14.72 283.998 14.72C284.553 14.72 284.915 14.976 285.086 15.488C285.299 16 285.214 16.4267 284.83 16.768L269.982 30.336C269.726 30.592 269.705 30.848 269.918 31.104L285.022 45.888C285.363 46.2293 285.427 46.6773 285.214 47.232C285.001 47.744 284.638 48 284.126 48C282.121 48 280.414 47.296 279.006 45.888L264.926 31.936C264.883 31.8933 264.841 31.872 264.798 31.872C264.755 31.872 264.734 31.8933 264.734 31.936V45.568C264.734 46.2507 264.499 46.8267 264.03 47.296Z" fill="#219653"/>
</svg>
